# NIST-developed software is provided by NIST as a public service. You may use,
# copy and distribute copies of the software in any medium, provided that you
# keep intact this entire notice. You may improve,modify and create derivative
# works of the software or any portion of the software, and you may copy and
# distribute such modifications or works. Modified works should carry a notice
# stating that you changed the software and should note the date and nature of
# any such change. Please explicitly acknowledge the National Institute of
# Standards and Technology as the source of the software.
#
# NIST-developed software is expressly provided "AS IS." NIST MAKES NO
# WARRANTY OF ANY KIND, EXPRESS, IMPLIED, IN FACT OR ARISING BY OPERATION OF
# LAW, INCLUDING, WITHOUT LIMITATION, THE IMPLIED WARRANTY OF
# MERCHANTABILITY, FITNESS FOR A PARTICULAR PURPOSE, NON-INFRINGEMENT
# AND DATA ACCURACY. NIST NEITHER REPRESENTS NOR WARRANTS THAT THE
# OPERATION OF THE SOFTWARE WILL BE UNINTERRUPTED OR ERROR-FREE, OR THAT
# ANY DEFECTS WILL BE CORRECTED. NIST DOES NOT WARRANT OR MAKE ANY
# REPRESENTATIONS REGARDING THE USE OF THE SOFTWARE OR THE RESULTS THEREOF,
# INCLUDING BUT NOT LIMITED TO THE CORRECTNESS, ACCURACY, RELIABILITY,
# OR USEFULNESS OF THE SOFTWARE.
#
# You are solely responsible for determining the appropriateness of using and
# distributing the software and you assume all risks associated with its use,
# including but not limited to the risks and costs of program errors,
# compliance with applicable laws, damage to or loss of data, programs or
# equipment, and the unavailability or interruption of operation. This
# software is not intended to be used in any situation where a failure could
# cause risk of injury or damage to property. The software developed by NIST
# employees is not subject to copyright protection within the United States.
#
# Author: Evan Black <evan.black@nist.gov>
#

mtllib diamond.mtl
o diamond_Plane
v -1.000000 1.500000 1.000000
v 1.000000 1.500000 1.000000
v -1.000000 1.500000 -1.000000
v 1.000000 1.500000 -1.000000
v 0.000000 3.000000 0.000000
v 0.000000 0.000000 0.000000
vt 0.000000 0.000000
vt 0.000000 0.000000
vt 0.000000 1.000000
vt 1.000000 1.000000
vt 1.000000 0.000000
vt 0.000000 0.000000
vn -0.8321 0.5547 0.0000
vn 0.0000 0.5547 -0.8321
vn 0.8321 0.5547 0.0000
vn 0.0000 0.5547 0.8321
vn 0.0000 -0.5547 0.8321
vn -0.8321 -0.5547 0.0000
vn 0.0000 -0.5547 -0.8321
vn 0.8321 -0.5547 0.0000
usemtl netsimulyzer.base
s off
f 1/1/1 5/2/1 3/3/1
f 3/3/2 5/2/2 4/4/2
f 4/4/3 5/2/3 2/5/3
f 2/5/4 5/2/4 1/1/4
f 2/5/5 1/1/5 6/6/5
f 1/1/6 3/3/6 6/6/6
f 3/3/7 4/4/7 6/6/7
f 4/4/8 2/5/8 6/6/8
