# Blender v2.92.0 OBJ File: 'diamond.blend'
# www.blender.org
mtllib diamond.mtl
o diamond_Plane
v -1.000000 1.500000 1.000000
v 1.000000 1.500000 1.000000
v -1.000000 1.500000 -1.000000
v 1.000000 1.500000 -1.000000
v 0.000000 3.000000 0.000000
v 0.000000 0.000000 0.000000
vt 0.000000 0.000000
vt 0.000000 0.000000
vt 0.000000 1.000000
vt 1.000000 1.000000
vt 1.000000 0.000000
vt 0.000000 0.000000
vn -0.8321 0.5547 0.0000
vn 0.0000 0.5547 -0.8321
vn 0.8321 0.5547 0.0000
vn 0.0000 0.5547 0.8321
vn 0.0000 -0.5547 0.8321
vn -0.8321 -0.5547 0.0000
vn 0.0000 -0.5547 -0.8321
vn 0.8321 -0.5547 0.0000
usemtl netsimulyzer.base
s off
f 1/1/1 5/2/1 3/3/1
f 3/3/2 5/2/2 4/4/2
f 4/4/3 5/2/3 2/5/3
f 2/5/4 5/2/4 1/1/4
f 2/5/5 1/1/5 6/6/5
f 1/1/6 3/3/6 6/6/6
f 3/3/7 4/4/7 6/6/7
f 4/4/8 2/5/8 6/6/8
