# Blender v2.91.2 OBJ File: 'server.blend'
# www.blender.org
mtllib server.mtl
o Server
v -0.628659 0.000000 0.516357
v -0.628659 0.100000 0.516357
v -0.628659 0.000000 -0.537537
v -0.628659 0.100000 -0.537537
v 0.487721 0.000000 0.516357
v 0.487721 0.100000 0.516357
v 0.487721 0.000000 -0.537537
v 0.487721 0.100000 -0.537537
v 0.487721 0.000000 0.631491
v 0.487721 0.100000 0.631491
v 0.487721 0.000000 0.377328
v 0.487721 0.100000 0.377328
v 0.487721 0.025000 0.516357
v 0.487721 0.025000 0.377328
v 0.487721 0.075000 0.516357
v 0.487721 0.075000 0.377328
v 0.487721 0.000000 0.276340
v 0.487721 0.100000 0.276340
v 0.487721 0.000000 0.608209
v 0.487721 0.100000 0.608209
v 0.487721 0.088685 0.631491
v 0.487721 0.088685 0.608209
v 0.487721 0.010117 0.631491
v 0.487721 0.010117 0.608209
v 0.487721 0.081141 0.608209
v 0.487721 0.081141 0.631491
v 0.487721 0.017369 0.631491
v 0.487721 0.017369 0.608209
v 0.507161 0.088685 0.631491
v 0.507161 0.088685 0.608209
v 0.507162 0.081141 0.608209
v 0.507162 0.081141 0.631491
v 0.510452 0.087388 0.631491
v 0.510450 0.087388 0.608209
v 0.509651 0.081141 0.608209
v 0.509651 0.081141 0.631491
v 0.512521 0.084706 0.631491
v 0.512521 0.084580 0.608209
v 0.514641 0.078000 0.631491
v 0.514641 0.078000 0.608209
v 0.510791 0.078000 0.608209
v 0.510791 0.078000 0.631491
v 0.514645 0.071703 0.608209
v 0.510796 0.071703 0.608209
v 0.514637 0.071633 0.631491
v 0.510787 0.071633 0.631491
v 0.508692 0.017268 0.631491
v 0.508745 0.017315 0.608209
v 0.506950 0.010117 0.631491
v 0.507373 0.017369 0.631491
v 0.513255 0.011615 0.631491
v 0.512617 0.012224 0.608209
v 0.510269 0.010202 0.608209
v 0.508733 0.017303 0.608209
v 0.510201 0.010183 0.631491
v 0.508665 0.017284 0.631491
v 0.507444 0.017369 0.608209
v 0.507020 0.010117 0.608209
v 0.509770 0.019441 0.608209
v 0.513977 0.016615 0.608209
v 0.513946 0.018370 0.631491
v 0.509740 0.019383 0.631491
v 0.487721 0.000000 -0.631832
v 0.487721 0.100000 -0.631832
v 0.487721 0.000000 -0.655114
v 0.487721 0.100000 -0.655114
v 0.487721 0.088685 -0.631832
v 0.487721 0.088685 -0.655114
v 0.487721 0.010117 -0.631832
v 0.487721 0.010117 -0.655114
v 0.487721 0.081141 -0.655114
v 0.487721 0.081141 -0.631832
v 0.487721 0.017369 -0.631832
v 0.487721 0.017369 -0.655114
v 0.507161 0.088685 -0.631832
v 0.507161 0.088685 -0.655114
v 0.507162 0.081141 -0.655114
v 0.507162 0.081141 -0.631832
v 0.510452 0.087388 -0.631832
v 0.510450 0.087388 -0.655114
v 0.509651 0.081141 -0.655114
v 0.509651 0.081141 -0.631832
v 0.512521 0.084706 -0.631832
v 0.512521 0.084580 -0.655114
v 0.514641 0.078000 -0.631832
v 0.514641 0.078000 -0.655114
v 0.510791 0.078000 -0.655114
v 0.510791 0.078000 -0.631832
v 0.514645 0.071703 -0.655114
v 0.510796 0.071703 -0.655114
v 0.514637 0.071633 -0.631832
v 0.510787 0.071633 -0.631832
v 0.508692 0.017268 -0.631832
v 0.508745 0.017315 -0.655114
v 0.506950 0.010117 -0.631832
v 0.507373 0.017369 -0.631832
v 0.513255 0.011615 -0.631832
v 0.512617 0.012224 -0.655114
v 0.510269 0.010202 -0.655114
v 0.510201 0.010183 -0.631832
v 0.508665 0.017284 -0.631832
v 0.507444 0.017369 -0.655114
v 0.507020 0.010117 -0.655114
v 0.509770 0.019441 -0.655114
v 0.513977 0.016615 -0.655114
v 0.513946 0.018370 -0.631832
v 0.509740 0.019383 -0.631832
vt 0.375000 0.000000
vt 0.625000 0.000000
vt 0.625000 0.250000
vt 0.375000 0.250000
vt 0.625000 0.500000
vt 0.375000 0.500000
vt 0.375000 0.750000
vt 0.500000 0.750000
vt 0.562500 0.750000
vt 0.625000 0.750000
vt 0.625000 1.000000
vt 0.375000 1.000000
vt 0.125000 0.500000
vt 0.375000 0.562500
vt 0.375000 0.625000
vt 0.125000 0.750000
vt 0.875000 0.500000
vt 0.875000 0.750000
vt 0.625000 0.625000
vt 0.625000 0.562500
vt 0.400292 0.750000
vt 0.375000 0.750000
vt 0.375000 0.750000
vt 0.400292 0.750000
vt 0.500000 0.625000
vt 0.562500 0.625000
vt 0.418423 0.750000
vt 0.577853 0.750000
vt 0.596713 0.750000
vt 0.625000 0.750000
vt 0.596713 0.750000
vt 0.625000 0.750000
vt 0.418423 0.750000
vt 0.418423 0.750000
vt 0.418423 0.750000
vt 0.577853 0.750000
vt 0.577853 0.750000
vt 0.577853 0.750000
vt 0.000000 0.000000
vt 0.000000 0.000000
vt 0.000000 0.000000
vt 0.000000 0.000000
vt 0.596713 0.750000
vt 0.596713 0.750000
vt 0.000000 0.000000
vt 0.000000 0.000000
vt 0.000000 0.000000
vt 0.577853 0.750000
vt 0.596713 0.750000
vt 0.577853 0.750000
vt 0.596713 0.750000
vt 0.577853 0.750000
vt 0.577853 0.750000
vt 0.596713 0.750000
vt 0.596713 0.750000
vt 0.418423 0.750000
vt 0.400292 0.750000
vt 0.400292 0.750000
vt 0.418423 0.750000
vt 0.596713 0.750000
vt 0.596713 0.750000
vt 0.000000 0.000000
vt 0.000000 0.000000
vt 0.400292 0.750000
vt 0.400292 0.750000
vt 0.418423 0.750000
vt 0.418423 0.750000
vt 0.418423 0.750000
vt 0.418423 0.750000
vt 0.000000 0.000000
vt 0.000000 0.000000
vt 0.000000 0.000000
vt 0.000000 0.000000
vt 0.418423 0.750000
vt 0.418423 0.750000
vt 0.000000 0.000000
vt 0.000000 0.000000
vt 0.000000 0.000000
vt 0.000000 0.000000
vt 0.400292 0.750000
vt 0.400292 0.750000
vt 0.400292 0.750000
vt 0.400292 0.750000
vt 0.000000 0.000000
vt 0.000000 0.000000
vt 0.400292 0.750000
vt 0.400292 0.750000
vt 0.000000 0.000000
vt 0.000000 0.000000
vt 0.400292 0.750000
vt 0.375000 0.750000
vt 0.375000 0.750000
vt 0.400292 0.750000
vt 0.625000 0.750000
vt 0.596713 0.750000
vt 0.596713 0.750000
vt 0.625000 0.750000
vt 0.418423 0.750000
vt 0.418423 0.750000
vt 0.418423 0.750000
vt 0.418423 0.750000
vt 0.577853 0.750000
vt 0.577853 0.750000
vt 0.577853 0.750000
vt 0.577853 0.750000
vt 0.000000 0.000000
vt 0.000000 0.000000
vt 0.000000 0.000000
vt 0.000000 0.000000
vt 0.596713 0.750000
vt 0.596713 0.750000
vt 0.000000 0.000000
vt 0.000000 0.000000
vt 0.000000 0.000000
vt 0.577853 0.750000
vt 0.596713 0.750000
vt 0.577853 0.750000
vt 0.596713 0.750000
vt 0.577853 0.750000
vt 0.577853 0.750000
vt 0.596713 0.750000
vt 0.596713 0.750000
vt 0.596713 0.750000
vt 0.596713 0.750000
vt 0.000000 0.000000
vt 0.000000 0.000000
vt 0.400292 0.750000
vt 0.400292 0.750000
vt 0.400292 0.750000
vt 0.400292 0.750000
vt 0.418423 0.750000
vt 0.418423 0.750000
vt 0.418423 0.750000
vt 0.418423 0.750000
vt 0.000000 0.000000
vt 0.000000 0.000000
vt 0.000000 0.000000
vt 0.000000 0.000000
vt 0.000000 0.000000
vt 0.000000 0.000000
vt 0.000000 0.000000
vt 0.000000 0.000000
vt 0.400292 0.750000
vt 0.400292 0.750000
vt 0.400292 0.750000
vt 0.400292 0.750000
vt 0.000000 0.000000
vt 0.000000 0.000000
vt 0.400292 0.750000
vt 0.400292 0.750000
vt 0.000000 0.000000
vt 0.000000 0.000000
vt 0.418423 0.750000
vt 0.418423 0.750000
vt 0.000000 0.000000
vt 0.000000 0.000000
vt 0.000000 0.000000
vt 0.000000 0.000000
vn -1.0000 0.0000 0.0000
vn -0.0000 0.0000 -1.0000
vn -0.0000 0.0000 1.0000
vn 0.0000 -1.0000 0.0000
vn 0.0000 1.0000 0.0000
vn 1.0000 0.0000 0.0000
vn 0.0001 0.0000 -1.0000
vn -0.3668 -0.9303 0.0000
vn 0.9400 0.3411 0.0000
vn -0.7984 -0.6021 0.0017
vn -0.9527 -0.3040 0.0008
vn -0.5385 0.8425 0.0180
vn 0.9998 -0.0198 0.0008
vn -0.0924 -0.9957 -0.0017
vn 1.0000 0.0000 0.0002
vn -0.9999 0.0125 -0.0013
vn -0.0234 0.9997 0.0003
vn -0.0588 -0.9983 -0.0006
vn -1.0000 0.0000 -0.0002
vn -0.9835 0.1809 0.0084
vn 0.8984 -0.4391 0.0006
vn -0.0593 -0.9982 -0.0009
usemtl netsimulyzer.base
s off
f 1/1/1 2/2/1 4/3/1 3/4/1
f 3/4/2 4/3/2 8/5/2 7/6/2
f 5/7/3 13/8/3 15/9/3 6/10/3 2/11/3 1/12/3
f 3/13/4 7/6/4 17/14/4 11/15/4 5/7/4 1/16/4
f 8/5/5 4/17/5 2/18/5 6/10/5 12/19/5 18/20/5
f 24/21/1 19/22/1 9/23/1 23/24/1
f 11/15/6 14/25/6 13/8/6 5/7/6
f 7/6/6 8/5/6 18/20/6 12/19/6 16/26/6 14/25/6 11/15/6 17/14/6
f 16/26/6 12/19/6 6/10/6 15/9/6
f 6/10/1 15/9/1 13/8/1 5/7/1 19/22/1 24/21/1 28/27/1 25/28/1 22/29/1 20/30/1
f 20/30/1 22/29/1 21/31/1 10/32/1
f 27/33/4 28/27/4 57/34/4 50/35/4
f 25/28/5 26/36/5 32/37/5 31/38/5
f 25/28/1 28/27/1 27/33/1 26/36/1
f 32/39/7 29/40/7 33/41/7 36/42/7
f 21/31/4 22/29/4 30/43/4 29/44/4
f 26/45/2 21/46/2 29/40/2 32/39/2
f 22/29/3 25/28/3 31/38/3 30/43/3
f 36/42/2 33/41/2 37/47/2
f 30/43/3 31/38/3 35/48/3 34/49/3
f 31/38/5 32/37/5 36/50/5 35/48/5
f 29/44/8 30/43/8 34/49/8 33/51/8
f 35/48/9 36/50/9 42/52/9 41/53/9
f 34/49/3 35/48/3 38/54/3
f 33/51/10 34/49/10 38/54/10 37/55/10
f 54/56/3 53/57/3 52/58/3 48/59/3
f 37/55/11 38/54/11 40/60/11 39/61/11
f 36/42/2 37/47/2 39/62/2 42/63/2
f 38/54/3 35/48/3 41/53/3 40/60/3
f 53/57/12 55/64/12 51/65/12 52/58/12
f 62/66/13 59/67/13 44/68/13 46/69/13
f 49/70/2 50/71/2 56/72/2 55/73/2
f 56/74/14 54/56/14 48/59/14 47/75/14
f 61/76/2 62/77/2 46/78/2 45/79/2
f 44/68/15 41/53/15 42/52/15 46/78/15
f 59/67/3 60/80/3 43/81/3 44/68/3
f 60/80/16 61/82/16 45/83/16 43/81/16
f 23/84/2 27/85/2 50/71/2 49/70/2
f 58/86/17 49/87/17 55/64/17 53/57/17
f 50/35/18 57/34/18 54/56/18 56/74/18
f 55/73/2 56/72/2 47/88/2 51/89/2
f 39/62/2 45/79/2 46/78/2 42/63/2
f 24/21/5 23/24/5 49/87/5 58/86/5
f 57/34/3 58/86/3 53/57/3 54/56/3
f 28/27/3 24/21/3 58/86/3 57/34/3
f 39/62/19 40/60/19 43/81/19 45/79/19
f 41/53/3 44/68/3 43/81/3 40/60/3
f 52/58/20 51/65/20 61/82/20 60/80/20
f 48/59/3 52/58/3 60/80/3 59/67/3
f 51/89/2 47/88/2 62/77/2 61/76/2
f 47/75/21 48/59/21 59/67/21 62/66/21
f 70/90/1 65/91/1 63/92/1 69/93/1
f 66/94/1 68/95/1 67/96/1 64/97/1
f 73/98/4 74/99/4 102/100/4 96/101/4
f 71/102/5 72/103/5 78/104/5 77/105/5
f 71/102/1 74/99/1 73/98/1 72/103/1
f 78/106/2 75/107/2 79/108/2 82/109/2
f 67/96/4 68/95/4 76/110/4 75/111/4
f 72/112/2 67/113/2 75/107/2 78/106/2
f 68/95/3 71/102/3 77/105/3 76/110/3
f 82/109/2 79/108/2 83/114/2
f 76/110/3 77/105/3 81/115/3 80/116/3
f 77/105/5 78/104/5 82/117/5 81/115/5
f 75/111/8 76/110/8 80/116/8 79/118/8
f 81/115/9 82/117/9 88/119/9 87/120/9
f 80/116/3 81/115/3 84/121/3
f 79/118/10 80/116/10 84/121/10 83/122/10
f 83/122/11 84/121/11 86/123/11 85/124/11
f 82/109/2 83/114/2 85/125/2 88/126/2
f 84/121/3 81/115/3 87/120/3 86/123/3
f 99/127/12 100/128/12 97/129/12 98/130/12
f 107/131/13 104/132/13 90/133/13 92/134/13
f 95/135/2 96/136/2 101/137/2 100/138/2
f 106/139/2 107/140/2 92/141/2 91/142/2
f 90/133/15 87/120/15 88/119/15 92/141/15
f 104/132/3 105/143/3 89/144/3 90/133/3
f 105/143/16 106/145/16 91/146/16 89/144/16
f 69/147/2 73/148/2 96/136/2 95/135/2
f 103/149/17 95/150/17 100/128/17 99/127/17
f 100/138/2 101/137/2 93/151/2 97/152/2
f 85/125/2 91/142/2 92/141/2 88/126/2
f 70/90/5 69/93/5 95/150/5 103/149/5
f 74/99/3 70/90/3 103/149/3 102/100/3
f 85/125/19 86/123/19 89/144/19 91/142/19
f 87/120/3 90/133/3 89/144/3 86/123/3
f 98/130/20 97/129/20 106/145/20 105/143/20
f 94/153/3 98/130/3 105/143/3 104/132/3
f 97/152/2 93/151/2 107/140/2 106/139/2
f 93/154/21 94/153/21 104/132/21 107/131/21
f 102/100/22 94/153/22 93/154/22 101/137/22 96/136/22
f 98/130/3 94/153/3 99/127/3
f 102/100/3 103/149/3 99/127/3 94/153/3
f 8/155/1 64/156/1 67/113/1 72/112/1 73/148/1 69/147/1 63/157/1 7/158/1
usemtl visualizer.highlight
f 14/25/6 16/26/6 15/9/6 13/8/6
l 17 18
