# Blender v2.92.0 OBJ File: 'server.blend'
# www.blender.org
mtllib server.mtl
o Server
v -0.507782 0.000000 -0.602146
v -0.507782 0.100000 -0.602146
v 0.546039 0.000000 -0.589689
v 0.546039 0.100000 -0.589689
v -0.520978 0.000000 0.514156
v -0.520978 0.100000 0.514156
v 0.532843 0.000000 0.526614
v 0.532843 0.100000 0.526614
v -0.636104 0.000000 0.512796
v -0.636104 0.100000 0.512796
v -0.381958 0.000000 0.515800
v -0.381958 0.100000 0.515800
v -0.520978 0.025000 0.514156
v -0.381958 0.025000 0.515800
v -0.520978 0.075000 0.514156
v -0.381958 0.075000 0.515800
v -0.280978 0.000000 0.516993
v -0.280978 0.100000 0.516993
v -0.612823 0.000000 0.513071
v -0.612823 0.100000 0.513071
v -0.636104 0.088685 0.512796
v -0.612823 0.088685 0.513071
v -0.636104 0.010117 0.512796
v -0.612823 0.010117 0.513071
v -0.612823 0.081141 0.513071
v -0.636104 0.081141 0.512796
v -0.636104 0.017369 0.512796
v -0.612823 0.017369 0.513071
v -0.636334 0.088685 0.532234
v -0.613053 0.088685 0.532509
v -0.613053 0.081141 0.532510
v -0.636334 0.081141 0.532234
v -0.636373 0.087388 0.535525
v -0.613092 0.087388 0.535798
v -0.613083 0.081141 0.534999
v -0.636363 0.081141 0.534724
v -0.636397 0.084706 0.537594
v -0.613117 0.084580 0.537869
v -0.636422 0.078000 0.539714
v -0.613142 0.078000 0.539989
v -0.613096 0.078000 0.536139
v -0.636377 0.078000 0.535864
v -0.613142 0.071703 0.539993
v -0.613096 0.071703 0.536143
v -0.636422 0.071633 0.539709
v -0.636377 0.071633 0.535860
v -0.636352 0.017268 0.533765
v -0.613072 0.017315 0.534092
v -0.636331 0.010117 0.532022
v -0.636336 0.017369 0.532446
v -0.636406 0.011615 0.538328
v -0.613117 0.012224 0.537965
v -0.613090 0.010202 0.535617
v -0.613072 0.017303 0.534081
v -0.636370 0.010183 0.535274
v -0.636351 0.017284 0.533738
v -0.613056 0.017369 0.532792
v -0.613051 0.010117 0.532368
v -0.613084 0.019441 0.535118
v -0.613134 0.016615 0.539324
v -0.636414 0.018370 0.539019
v -0.636364 0.019383 0.534812
v 0.627131 0.000000 0.527728
v 0.627131 0.100000 0.527728
v 0.650411 0.000000 0.528003
v 0.650411 0.100000 0.528003
v 0.627131 0.088685 0.527728
v 0.650411 0.088685 0.528003
v 0.627131 0.010117 0.527728
v 0.650411 0.010117 0.528003
v 0.650411 0.081141 0.528003
v 0.627131 0.081141 0.527728
v 0.627131 0.017369 0.527728
v 0.650411 0.017369 0.528003
v 0.626901 0.088685 0.547167
v 0.650182 0.088685 0.547442
v 0.650182 0.081141 0.547442
v 0.626901 0.081141 0.547167
v 0.626862 0.087388 0.550457
v 0.650143 0.087388 0.550731
v 0.650152 0.081141 0.549932
v 0.626872 0.081141 0.549657
v 0.626838 0.084706 0.552526
v 0.650118 0.084580 0.552801
v 0.626812 0.078000 0.554646
v 0.650093 0.078000 0.554921
v 0.650139 0.078000 0.551072
v 0.626858 0.078000 0.550796
v 0.650093 0.071703 0.554925
v 0.650139 0.071703 0.551076
v 0.626813 0.071633 0.554642
v 0.626858 0.071633 0.550792
v 0.626883 0.017268 0.548698
v 0.650163 0.017315 0.549025
v 0.626904 0.010117 0.546955
v 0.626899 0.017369 0.547378
v 0.626829 0.011615 0.553260
v 0.650117 0.012224 0.552897
v 0.650145 0.010202 0.550550
v 0.626865 0.010183 0.550206
v 0.626883 0.017284 0.548670
v 0.650178 0.017369 0.547724
v 0.650183 0.010117 0.547301
v 0.650151 0.019441 0.550050
v 0.650101 0.016615 0.554257
v 0.626821 0.018370 0.553951
v 0.626871 0.019383 0.549745
vt 0.375000 0.000000
vt 0.625000 0.000000
vt 0.625000 0.250000
vt 0.375000 0.250000
vt 0.625000 0.500000
vt 0.375000 0.500000
vt 0.375000 0.750000
vt 0.500000 0.750000
vt 0.562500 0.750000
vt 0.625000 0.750000
vt 0.625000 1.000000
vt 0.375000 1.000000
vt 0.125000 0.500000
vt 0.375000 0.562500
vt 0.375000 0.625000
vt 0.125000 0.750000
vt 0.875000 0.500000
vt 0.875000 0.750000
vt 0.625000 0.625000
vt 0.625000 0.562500
vt 0.400292 0.750000
vt 0.375000 0.750000
vt 0.375000 0.750000
vt 0.400292 0.750000
vt 0.500000 0.625000
vt 0.562500 0.625000
vt 0.418423 0.750000
vt 0.577853 0.750000
vt 0.596713 0.750000
vt 0.625000 0.750000
vt 0.596713 0.750000
vt 0.625000 0.750000
vt 0.418423 0.750000
vt 0.418423 0.750000
vt 0.418423 0.750000
vt 0.577853 0.750000
vt 0.577853 0.750000
vt 0.577853 0.750000
vt 0.000000 0.000000
vt 0.000000 0.000000
vt 0.000000 0.000000
vt 0.000000 0.000000
vt 0.596713 0.750000
vt 0.596713 0.750000
vt 0.000000 0.000000
vt 0.000000 0.000000
vt 0.000000 0.000000
vt 0.577853 0.750000
vt 0.596713 0.750000
vt 0.577853 0.750000
vt 0.596713 0.750000
vt 0.577853 0.750000
vt 0.577853 0.750000
vt 0.596713 0.750000
vt 0.596713 0.750000
vt 0.418423 0.750000
vt 0.400292 0.750000
vt 0.400292 0.750000
vt 0.418423 0.750000
vt 0.596713 0.750000
vt 0.596713 0.750000
vt 0.000000 0.000000
vt 0.000000 0.000000
vt 0.400292 0.750000
vt 0.400292 0.750000
vt 0.418423 0.750000
vt 0.418423 0.750000
vt 0.418423 0.750000
vt 0.418423 0.750000
vt 0.000000 0.000000
vt 0.000000 0.000000
vt 0.000000 0.000000
vt 0.000000 0.000000
vt 0.418423 0.750000
vt 0.418423 0.750000
vt 0.000000 0.000000
vt 0.000000 0.000000
vt 0.000000 0.000000
vt 0.000000 0.000000
vt 0.400292 0.750000
vt 0.400292 0.750000
vt 0.400292 0.750000
vt 0.400292 0.750000
vt 0.000000 0.000000
vt 0.000000 0.000000
vt 0.400292 0.750000
vt 0.400292 0.750000
vt 0.000000 0.000000
vt 0.000000 0.000000
vt 0.400292 0.750000
vt 0.375000 0.750000
vt 0.375000 0.750000
vt 0.400292 0.750000
vt 0.625000 0.750000
vt 0.596713 0.750000
vt 0.596713 0.750000
vt 0.625000 0.750000
vt 0.418423 0.750000
vt 0.418423 0.750000
vt 0.418423 0.750000
vt 0.418423 0.750000
vt 0.577853 0.750000
vt 0.577853 0.750000
vt 0.577853 0.750000
vt 0.577853 0.750000
vt 0.000000 0.000000
vt 0.000000 0.000000
vt 0.000000 0.000000
vt 0.000000 0.000000
vt 0.596713 0.750000
vt 0.596713 0.750000
vt 0.000000 0.000000
vt 0.000000 0.000000
vt 0.000000 0.000000
vt 0.577853 0.750000
vt 0.596713 0.750000
vt 0.577853 0.750000
vt 0.596713 0.750000
vt 0.577853 0.750000
vt 0.577853 0.750000
vt 0.596713 0.750000
vt 0.596713 0.750000
vt 0.596713 0.750000
vt 0.596713 0.750000
vt 0.000000 0.000000
vt 0.000000 0.000000
vt 0.400292 0.750000
vt 0.400292 0.750000
vt 0.400292 0.750000
vt 0.400292 0.750000
vt 0.418423 0.750000
vt 0.418423 0.750000
vt 0.418423 0.750000
vt 0.418423 0.750000
vt 0.000000 0.000000
vt 0.000000 0.000000
vt 0.000000 0.000000
vt 0.000000 0.000000
vt 0.000000 0.000000
vt 0.000000 0.000000
vt 0.000000 0.000000
vt 0.000000 0.000000
vt 0.400292 0.750000
vt 0.400292 0.750000
vt 0.400292 0.750000
vt 0.400292 0.750000
vt 0.000000 0.000000
vt 0.000000 0.000000
vt 0.400292 0.750000
vt 0.400292 0.750000
vt 0.000000 0.000000
vt 0.000000 0.000000
vt 0.418423 0.750000
vt 0.418423 0.750000
vt 0.000000 0.000000
vt 0.000000 0.000000
vt 0.000000 0.000000
vt 0.000000 0.000000
vn 0.0118 0.0000 -0.9999
vn 0.9999 0.0000 0.0118
vn -0.9999 0.0000 -0.0118
vn 0.0000 -1.0000 0.0000
vn 0.0000 1.0000 0.0000
vn -0.0118 0.0000 0.9999
vn 0.0043 -0.9303 -0.3668
vn -0.0111 0.3412 0.9399
vn 0.0078 -0.6021 -0.7983
vn 0.0104 -0.3040 -0.9526
vn -0.0116 0.8425 -0.5386
vn -0.0126 -0.0198 0.9997
vn 0.0028 -0.9957 -0.0926
vn -0.0120 0.0000 0.9999
vn 0.0131 0.0125 -0.9998
vn -0.0001 0.9997 -0.0234
vn 0.0013 -0.9983 -0.0588
vn 0.0120 0.0000 -0.9999
vn 0.0032 0.1809 -0.9835
vn -0.9999 -0.0000 -0.0119
vn -0.0112 -0.4391 0.8983
vn 0.9999 0.0000 0.0119
vn 0.9999 0.0001 0.0118
vn -0.0111 0.3411 0.9399
vn 0.0078 -0.6021 -0.7984
vn -0.0112 -0.4391 0.8984
vn 0.0016 -0.9982 -0.0593
usemtl netsimulyzer.base
s off
f 1/1/1 2/2/1 4/3/1 3/4/1
f 3/4/2 4/3/2 8/5/2 7/6/2
f 5/7/3 13/8/3 15/9/3 6/10/3 2/11/3 1/12/3
f 3/13/4 7/6/4 17/14/4 11/15/4 5/7/4 1/16/4
f 8/5/5 4/17/5 2/18/5 6/10/5 12/19/5 18/20/5
f 24/21/1 19/22/1 9/23/1 23/24/1
f 11/15/6 14/25/6 13/8/6 5/7/6
f 7/6/6 8/5/6 18/20/6 12/19/6 16/26/6 14/25/6 11/15/6 17/14/6
f 16/26/6 12/19/6 6/10/6 15/9/6
f 6/10/1 15/9/1 13/8/1 5/7/1 19/22/1 24/21/1 28/27/1 25/28/1 22/29/1 20/30/1
f 20/30/1 22/29/1 21/31/1 10/32/1
f 27/33/4 28/27/4 57/34/4 50/35/4
f 25/28/5 26/36/5 32/37/5 31/38/5
f 25/28/1 28/27/1 27/33/1 26/36/1
f 32/39/2 29/40/2 33/41/2 36/42/2
f 21/31/4 22/29/4 30/43/4 29/44/4
f 26/45/2 21/46/2 29/40/2 32/39/2
f 22/29/3 25/28/3 31/38/3 30/43/3
f 36/42/2 33/41/2 37/47/2
f 30/43/3 31/38/3 35/48/3 34/49/3
f 31/38/5 32/37/5 36/50/5 35/48/5
f 29/44/7 30/43/7 34/49/7 33/51/7
f 35/48/8 36/50/8 42/52/8 41/53/8
f 34/49/3 35/48/3 38/54/3
f 33/51/9 34/49/9 38/54/9 37/55/9
f 54/56/3 53/57/3 52/58/3 48/59/3
f 37/55/10 38/54/10 40/60/10 39/61/10
f 36/42/2 37/47/2 39/62/2 42/63/2
f 38/54/3 35/48/3 41/53/3 40/60/3
f 53/57/11 55/64/11 51/65/11 52/58/11
f 62/66/12 59/67/12 44/68/12 46/69/12
f 49/70/2 50/71/2 56/72/2 55/73/2
f 56/74/13 54/56/13 48/59/13 47/75/13
f 61/76/2 62/77/2 46/78/2 45/79/2
f 44/68/14 41/53/14 42/52/14 46/78/14
f 59/67/3 60/80/3 43/81/3 44/68/3
f 60/80/15 61/82/15 45/83/15 43/81/15
f 23/84/2 27/85/2 50/71/2 49/70/2
f 58/86/16 49/87/16 55/64/16 53/57/16
f 50/35/17 57/34/17 54/56/17 56/74/17
f 55/73/2 56/72/2 47/88/2 51/89/2
f 39/62/2 45/79/2 46/78/2 42/63/2
f 24/21/5 23/24/5 49/87/5 58/86/5
f 57/34/3 58/86/3 53/57/3 54/56/3
f 28/27/3 24/21/3 58/86/3 57/34/3
f 39/62/18 40/60/18 43/81/18 45/79/18
f 41/53/3 44/68/3 43/81/3 40/60/3
f 52/58/19 51/65/19 61/82/19 60/80/19
f 48/59/20 52/58/20 60/80/20 59/67/20
f 51/89/2 47/88/2 62/77/2 61/76/2
f 47/75/21 48/59/21 59/67/21 62/66/21
f 70/90/1 65/91/1 63/92/1 69/93/1
f 66/94/1 68/95/1 67/96/1 64/97/1
f 73/98/4 74/99/4 102/100/4 96/101/4
f 71/102/5 72/103/5 78/104/5 77/105/5
f 71/102/1 74/99/1 73/98/1 72/103/1
f 78/106/22 75/107/22 79/108/22 82/109/22
f 67/96/4 68/95/4 76/110/4 75/111/4
f 72/112/2 67/113/2 75/107/2 78/106/2
f 68/95/3 71/102/3 77/105/3 76/110/3
f 82/109/23 79/108/23 83/114/23
f 76/110/3 77/105/3 81/115/3 80/116/3
f 77/105/5 78/104/5 82/117/5 81/115/5
f 75/111/7 76/110/7 80/116/7 79/118/7
f 81/115/24 82/117/24 88/119/24 87/120/24
f 80/116/20 81/115/20 84/121/20
f 79/118/25 80/116/25 84/121/25 83/122/25
f 83/122/10 84/121/10 86/123/10 85/124/10
f 82/109/22 83/114/22 85/125/22 88/126/22
f 84/121/3 81/115/3 87/120/3 86/123/3
f 99/127/11 100/128/11 97/129/11 98/130/11
f 107/131/12 104/132/12 90/133/12 92/134/12
f 95/135/2 96/136/2 101/137/2 100/138/2
f 106/139/2 107/140/2 92/141/2 91/142/2
f 90/133/14 87/120/14 88/119/14 92/141/14
f 104/132/3 105/143/3 89/144/3 90/133/3
f 105/143/15 106/145/15 91/146/15 89/144/15
f 69/147/2 73/148/2 96/136/2 95/135/2
f 103/149/16 95/150/16 100/128/16 99/127/16
f 100/138/2 101/137/2 93/151/2 97/152/2
f 85/125/2 91/142/2 92/141/2 88/126/2
f 70/90/5 69/93/5 95/150/5 103/149/5
f 74/99/3 70/90/3 103/149/3 102/100/3
f 85/125/18 86/123/18 89/144/18 91/142/18
f 87/120/3 90/133/3 89/144/3 86/123/3
f 98/130/19 97/129/19 106/145/19 105/143/19
f 94/153/20 98/130/20 105/143/20 104/132/20
f 97/152/2 93/151/2 107/140/2 106/139/2
f 93/154/26 94/153/26 104/132/26 107/131/26
f 102/100/27 94/153/27 93/154/27 101/137/27 96/136/27
f 98/130/3 94/153/3 99/127/3
f 102/100/3 103/149/3 99/127/3 94/153/3
f 8/155/1 64/156/1 67/113/1 72/112/1 73/148/1 69/147/1 63/157/1 7/158/1
usemtl netsimulyzer.highlight
f 14/25/6 16/26/6 15/9/6 13/8/6
l 17 18
